<?xml version="1.0" encoding="utf-8"?>
<!-- Generator: Adobe Illustrator 17.1.0, SVG Export Plug-In . SVG Version: 6.00 Build 0)  -->
<!DOCTYPE svg PUBLIC "-//W3C//DTD SVG 1.1//EN" "http://www.w3.org/Graphics/SVG/1.1/DTD/svg11.dtd">
<svg version="1.1" id="Layer_1" xmlns="http://www.w3.org/2000/svg" xmlns:xlink="http://www.w3.org/1999/xlink" x="0px" y="0px"
	 viewBox="2.3 -87 309.2 60" enable-background="new 2.3 -87 309.2 60" xml:space="preserve">
<path fill="#007DFA" d="M215.5-83.9c0-0.7,0.7-1.1,1.1-1.1h32.9c0.7,0,1.1,0.7,1.1,1.1v1.4c0,0.7-0.7,1.1-1.1,1.1h-30.1V-59h26
	c0.7,0,1.1,0.7,1.1,1.1v1.5c0,0.7-0.7,1.1-1.1,1.1h-26v24.4h30.1c0.7,0,1.1,0.7,1.1,1.1v1.4c0,0.7-0.7,1.1-1.1,1.1h-32.9
	c-0.7,0-1.1-0.7-1.1-1.1V-83.9L215.5-83.9z"/>
<path fill="#007DFA" d="M280.6-83.9c0-0.7,0.7-1.1,1.1-1.1h1.7c0.7,0,0.8,0.7,0.8,1.1v53.1h26.2c0.8,0,1.1,0.7,1.1,1.1v1.5
	c0,0.7-0.7,0.8-1.1,0.8h-28.9c-0.7,0-1.1-0.7-1.1-1.1L280.6-83.9L280.6-83.9z"/>
<g>
	<path fill="#007DFA" d="M150.5-35.6l0.7-1c0.5-0.6,1.2-0.9,1.8-0.4c0.8,0.7,6.9,6.3,15.2,6.3c7.5,0,13.7-5,13.7-11
		c0-7.3-6-10.5-15.9-13.9c-9.5-3.4-15.8-6.7-15.8-16.1c0-6.2,4.9-14.5,17.7-14.5c8.1,0,14.1,4.2,14.1,4.2c0.4,0.3,0.9,0.8,0.4,1.7
		c-0.3,0.4-0.5,0.7-0.6,1.1c-0.5,0.6-1,0.9-1.8,0.5c-0.3-0.2-5.7-3.8-12-3.8c-10.1,0-13.8,6.2-13.8,10.9c0,7,5.4,10,13.6,12.7
		C179-55,186.2-51,186.2-41.6c0,8.2-8.5,14.5-17.8,14.5c-9.7,0-16.3-5.7-17.4-6.7C150.2-34.3,149.9-34.6,150.5-35.6z"/>
</g>
<path fill="#007DFA" d="M2.3-83.9C2.3-84.7,3-85,3.4-85h32.9c0.7,0,1.1,0.7,1.1,1.1v1.4c0,0.7-0.7,1.1-1.1,1.1H6.2V-59h26
	c0.7,0,1.1,0.7,1.1,1.1v1.5c0,0.7-0.7,1.1-1.1,1.1h-26v24.4h30.1c0.7,0,1.1,0.7,1.1,1.1v1.4c0,0.7-0.7,1.1-1.1,1.1H3.5
	c-0.7,0-1.1-0.7-1.1-1.1L2.3-83.9L2.3-83.9z"/>
<path fill="#007DFA" d="M115-42.9h7v-35.4H99.6l-2.7-7.1c-0.3-0.7-0.8-1.2-1.5-1.3c-0.1,0-0.2-0.1-0.4-0.1h-0.1h-0.2h-0.1
	c-0.1,0-0.2,0-0.4,0.1c-0.7,0.2-1.3,0.6-1.5,1.3L90-78.3H67.6v35.4h7v1.8h1.3l-4.3,11.5c-0.3,0.9,0.1,1.9,0.9,2.3l0,0
	c1,0.4,2.1,0,2.4-1L77-34h35.5l2.1,5.6c0.4,1,1.5,1.5,2.4,1l0,0c0.8-0.4,1.2-1.4,0.9-2.3l-4.3-11.5h1.4V-42.9z M94.8-82.2l1.4,3.9
	h-2.9L94.8-82.2z M78.2-37.2l1.4-3.9h30.2l1.4,3.9H78.2z M71.8-46.2v-28.1h46.1v28.1H71.8z"/>
</svg>
